<?xml version="1.0" encoding="utf-8"?>
<svg version="1.1" id="layer" xmlns="http://www.w3.org/2000/svg" xmlns:xlink="http://www.w3.org/1999/xlink" x="0px" y="0px"
	 viewBox="0 180 652 300" style="enable-background:new 0 185 652 300;" xml:space="preserve">
<style type="text/css">
	.st0{fill:none;stroke:#003976;stroke-width:6.76;}
	.st1{fill:#003976;}
	.st2{fill:#808285;}
</style>
<g>
	<path class="st0" d="M21.5,219.9h600 M21.5,423h600"/>
	<path class="st1" d="M78.7,272.9h14c17.7,0,25.8,9.3,25.8,20.3c0,6.7-4.7,20.3-25.3,20.3H78.7V272.9z M69.6,320.6h24.7
		c20.9,0,33.6-13.3,33.6-27.4c0-12.9-10.3-27.4-33.7-27.4H69.6V320.6z"/>
	<rect x="163.6" y="265.9" class="st1" width="9.1" height="54.7"/>
	<path class="st1" d="M241.2,277.9c-5.4-4.4-10.6-5.7-14.8-5.7c-5.8,0-10,2.6-10,6.5c0,10.5,27.4,10.4,27.4,27.8
		c0,8.6-7.5,14.8-17.7,14.8c-6.9,0-12.4-1.6-17.7-5.1v-10c4.6,5.1,10.5,8,16.7,8c7.1,0,10.3-3.9,10.3-6.9
		c0-11.3-27.4-12.6-27.4-27.6c0-8.9,7.6-14.6,19.2-14.6c4.8,0,9.6,1.3,14.1,3.9V277.9z"/>
	<polygon class="st1" points="325.6,272.9 303.7,272.9 303.7,320.6 294.6,320.6 294.6,272.9 272.7,272.9 272.7,265.9 325.6,265.9 	
		"/>
	<polygon class="st1" points="394.5,272.9 367.7,272.9 367.7,289.5 393.6,289.5 393.6,296.5 367.7,296.5 367.7,313.5 395.3,313.5 
		395.3,320.6 358.6,320.6 358.6,265.9 394.5,265.9 	"/>
	<path class="st1" d="M483.3,278.1c-7.8-3.9-14.5-5.7-21.8-5.7c-14.5,0-25.2,8.9-25.2,20.9c0,12.3,10.4,20.8,25.6,20.8
		c7.1,0,14.9-2.2,22.1-6.2v8.6c-6.2,2.8-13,4.8-22.9,4.8c-23.8,0-34.2-15.8-34.2-27.3c0-16.7,14.6-28.9,34.7-28.9
		c6.5,0,13.1,1.4,21.7,4.5V278.1z"/>
	<polygon class="st1" points="573.2,320.6 564.1,320.6 564.1,296.8 528.6,296.8 528.6,320.6 519.5,320.6 519.5,265.9 528.6,265.9 
		528.6,289.7 564.1,289.7 564.1,265.9 573.2,265.9 	"/>
	<path class="st2" d="M102.8,350.9c-4.6-2.4-8.6-3.5-12.9-3.5c-8.6,0-14.9,5.6-14.9,13c0,7.7,6.2,13,15.2,13c4.2,0,8.8-1.3,13.1-3.8
		v5.3c-3.7,1.8-7.7,3-13.6,3c-14.1,0-20.2-9.9-20.2-17c0-10.4,8.6-18,20.6-18c3.8,0,7.7,0.8,12.9,2.8V350.9z"/>
	<path class="st2" d="M145.3,360.4c0-7.5,6.2-13,14.6-13c8.4,0,14.6,5.5,14.6,13c0,7.4-6.2,13-14.6,13
		C151.5,373.4,145.3,367.8,145.3,360.4 M139.7,360.4c0,9.3,7.7,17.5,20,17.5c12.7,0,20.3-8.3,20.3-17.5c0-9.5-7.8-17.5-20.2-17.5
		C147.7,342.9,139.7,350.9,139.7,360.4"/>
	<polygon class="st2" points="252.8,377.4 248.2,377.4 223.2,351.2 223.2,377.4 218.1,377.4 218.1,343.3 222.4,343.3 247.8,369.7 
		247.8,343.3 252.8,343.3 	"/>
	<polygon class="st2" points="320.8,347.7 307.8,347.7 307.8,377.4 302.4,377.4 302.4,347.7 289.5,347.7 289.5,343.3 320.8,343.3 	
		"/>
	<path class="st2" d="M362.9,347.5h3.5c5.2,0,7.3,1.9,7.4,5.2c0.1,2.9-1.6,5.6-7.4,5.6h-3.5V347.5z M357.5,343.3v34.1h5.4v-14.8h2.3
		c2.7,0,5,0.8,9.9,7.8l4.9,7h6.4c-2.6-3.2-3.5-4.4-5.1-6.8c-2.9-4.3-4.9-7.4-8.3-9.4c4-1.5,6.3-4.4,6.3-8.3c0-5.9-4.7-9.5-12.3-9.5
		H357.5z"/>
	<path class="st2" d="M422.8,360.4c0-7.5,6.2-13,14.6-13c8.4,0,14.6,5.5,14.6,13c0,7.4-6.2,13-14.6,13
		C429,373.4,422.8,367.8,422.8,360.4 M417.3,360.4c0,9.3,7.7,17.5,20,17.5c12.7,0,20.3-8.3,20.3-17.5c0-9.5-7.8-17.5-20.2-17.5
		C425.2,342.9,417.3,350.9,417.3,360.4"/>
	<polygon class="st2" points="501,373 517.9,373 517.9,377.4 495.6,377.4 495.6,343.3 501,343.3 	"/>
	<path class="st2" d="M572,350.8c-3.2-2.8-6.3-3.5-8.8-3.5c-3.5,0-5.9,1.7-5.9,4c0,6.6,16.2,6.5,16.2,17.3c0,5.3-4.4,9.3-10.5,9.3
		c-4.1,0-7.4-1-10.5-3.1v-6.2c2.8,3.2,6.2,4.9,9.9,4.9c4.2,0,6.1-2.4,6.1-4.3c0-7-16.2-7.9-16.2-17.2c0-5.6,4.5-9.1,11.4-9.1
		c2.9,0,5.7,0.8,8.3,2.4V350.8z"/>
	<path class="st2" d="M589.8,343.2c1.3,0,2.6,0.3,3.7,1c1.2,0.7,2.1,1.6,2.8,2.7c0.7,1.2,1,2.4,1,3.7c0,1.3-0.3,2.6-1,3.7
		c-0.7,1.2-1.6,2.1-2.7,2.7c-1.2,0.7-2.4,1-3.8,1c-1.3,0-2.6-0.3-3.8-1c-1.2-0.7-2.1-1.6-2.7-2.7c-0.7-1.2-1-2.4-1-3.8
		c0-1.3,0.3-2.6,1-3.8c0.7-1.2,1.6-2.1,2.7-2.7C587.2,343.6,588.5,343.2,589.8,343.2 M589.8,344.5c-1.7,0-3.2,0.6-4.4,1.8
		c-1.2,1.2-1.8,2.7-1.8,4.4c0,1.7,0.6,3.2,1.8,4.4c1.2,1.2,2.7,1.8,4.4,1.8c1.7,0,3.2-0.6,4.4-1.8c1.2-1.2,1.8-2.7,1.8-4.4
		s-0.6-3.2-1.8-4.4C593,345.1,591.5,344.5,589.8,344.5 M588.1,354.8h-1.3v-8.1h2.8c1,0,1.7,0.1,2.1,0.2c0.4,0.2,0.7,0.4,1,0.8
		c0.2,0.4,0.4,0.7,0.4,1.2c0,0.6-0.2,1.1-0.6,1.6c-0.4,0.4-1,0.7-1.7,0.7c0.3,0.1,0.6,0.3,0.9,0.6c0.3,0.3,0.6,0.8,1,1.4l1,1.6H592
		l-0.7-1.3c-0.5-0.9-0.9-1.5-1.2-1.8c-0.3-0.3-0.7-0.4-1.2-0.4h-0.8V354.8z M588.1,347.8v2.4h1.6c0.7,0,1.2-0.1,1.5-0.3
		c0.3-0.2,0.5-0.5,0.5-0.9c0-0.4-0.2-0.7-0.5-0.9c-0.3-0.2-0.8-0.3-1.6-0.3H588.1z"/>
</g>
</svg>
