<?xml version="1.0" encoding="utf-8"?>
<!-- Generator: Adobe Illustrator 19.2.1, SVG Export Plug-In . SVG Version: 6.00 Build 0)  -->
<svg version="1.1" id="Layer_1" xmlns="http://www.w3.org/2000/svg" xmlns:xlink="http://www.w3.org/1999/xlink" x="0px" y="0px"
	 viewBox="0 0 275.9 84.9" style="enable-background:new 0 0 275.9 84.9;" xml:space="preserve">
<style type="text/css">
	.st0{fill:#EE3124;}
	.st1{fill:#231F20;}
</style>
<path class="st0" d="M26.8,6.2h11.7v38.1H26.8V26.9h-9.2v17.4H5.8V6.2h11.8v15.9h9.2V6.2z M71.6,22.8c2.1,3.7,2.4,9,0.9,13.3
	c-1.5,4.3-4.5,6.4-6.6,7.5c-2,1.1-5.2,1.7-8.3,1.7c-3.1,0-7.1-0.7-9.8-2.8c-2.7-2.1-4.5-4.5-5.3-7.6c-0.8-3.2-1.3-8.8,2.1-13.3
	c3.4-4.5,7.6-5.3,9.6-5.6c1.8-0.3,2.9-0.3,3.1-0.3c0,0,3.8-0.2,6.9,1C67.1,17.8,69.4,19.1,71.6,22.8z M61.6,26.6
	c0-2.2-0.4-3.8-0.7-4.5c-0.6-1.4-1.6-3-3.3-3c-0.2,0-0.4,0-0.6,0.1c-0.9,0.2-1.8,1.1-2.6,2.9c-0.7,1.5-0.7,3.9-0.7,7.1
	c0,0.9,0,2,0,3.1c-0.1,5,0.4,6.5,1.4,8.1c0.6,0.9,1.4,1.4,2.2,1.6c0.7,0.1,1.4-0.1,2-0.6c1.7-1.5,2.1-4.6,2.2-5.5
	C61.6,34.8,61.6,30.4,61.6,26.6z M101.3,16.6c-3.9-1.7-7.8-0.7-10,0.4c-2.2,1.1-3.7,3.3-3.7,3.2v-3.7h-11v27.8l11,0v-20
	c0-0.4,1.3-1.9,2.8-2.7c1.5-0.8,3.3-0.4,3.9,0.4c0.9,1.1,0.9,2.3,0.9,2.9v19.3H106l0-21.2C105.9,21.8,105.2,18.3,101.3,16.6z
	 M138.8,23c2.1,3.9,1.8,9.1,1.7,9.1H121v5.6c0,0,0.2,1.1,0.6,1.7c0.4,0.6,2,2.9,7.4,2.1c5.9-0.9,5.8-5.2,5.9-5.2l4.7,0
	c0,0-0.1,2.8-2,4.7c-2,1.9-5.4,3.8-9.3,4.2c-3.9,0.4-9.4,0.5-13.8-3.2c-2.6-2.2-3.8-4.5-4.5-6.6c-0.9-2.7-1.2-7.8,1-12.2
	c2.2-4.4,7.7-7.9,14.6-7.5C132.4,15.9,136.4,18.4,138.8,23z M129.1,25.9c0-1.5-0.3-3.1-0.4-3.6l0-0.1c-0.2-0.5-0.4-1.4-1.5-2.5
	c-1-1-3-1-4-0.3c-0.8,0.6-1.7,1.9-2,3.6c-0.3,1.4-0.2,4.3-0.2,5.1h8.1C129.1,27.9,129.1,27.2,129.1,25.9z M238.5,23
	c2.1,3.9,1.8,9.1,1.7,9.1h-19.5v5.6c0,0,0.2,1.1,0.6,1.7c0.4,0.6,2,2.9,7.4,2.1c5.9-0.9,5.8-5.2,5.9-5.2l4.7,0c0,0-0.1,2.8-2,4.7
	c-2,1.9-5.4,3.8-9.3,4.2c-3.9,0.4-9.4,0.5-13.8-3.2c-2.6-2.2-3.8-4.5-4.5-6.6c-0.9-2.7-1.2-7.8,1-12.2c2.2-4.4,7.7-7.9,14.6-7.5
	C232.2,15.9,236.1,18.4,238.5,23z M228.9,25.9c0-1.5-0.3-3.1-0.4-3.6l0-0.1c-0.2-0.5-0.4-1.4-1.5-2.5c-1-1-3-1-4-0.3
	c-0.8,0.6-1.7,1.9-2,3.6c-0.3,1.4-0.3,4.3-0.2,5.1h8.1C228.9,27.9,228.9,27.2,228.9,25.9z M204.7,16.5l-4.2,15.6l-4.7-15.6h-9.6
	L182,32.1l-4.8-15.6h-15l-5.5,13.2l-5.1-13.2h-11.9L150.7,45c0,0,0,0.3-0.2,1.1c-0.2,0.8-1,2.8-2.4,4.3c-1.4,1.4-2.8,1-2.8,1
	s0.6-0.5,0.9-1.3c0.3-0.8,0.2-2.2-0.4-3.5c-0.6-1.3-2.3-2.3-4.9-1.8c-2.6,0.5-3.8,2.9-3.5,5.2c0.3,2.3,1.7,4.2,5.5,4.9
	c3.7,0.7,6-0.7,8-2.5c2-1.8,3.7-6.5,3.7-6.5l11.6-28.3l8.2,26.8h9.3l4.4-16.1l5,16.1h9l7.6-27.8H204.7z M243.5,44.3h10.5V6.2h-10.5
	V44.3z M257.4,6.2v38.1h10.5V6.2H257.4z"/>
<g>
	<path class="st1" d="M14.9,67v0.8h-4v10.9h-1V67.8h-4V67H14.9z"/>
	<path class="st1" d="M26.6,73.3h-7.3v5.5h-1V67h1v5.4h7.3V67h1v11.8h-1V73.3z"/>
	<path class="st1" d="M32.5,67h8.2v0.8h-7.3v4.6h6.4v0.8h-6.4V78h7.5v0.8h-8.4V67z"/>
	<path class="st1" d="M49.8,67h4.5c2.7,0,3.9,1.3,3.9,3.6c0,2.3-1.2,3.8-4,3.8h-3.4v4.3h-1V67z M50.7,67.8v5.8h3.6
		c1.8,0,2.9-1,2.9-2.9c0-1.9-0.9-2.8-2.9-2.8H50.7z"/>
	<path class="st1" d="M61.2,72.9c0-4.4,1.8-6.1,5.1-6.1c3.4,0,5.2,1.7,5.2,6.1c0,4.3-1.8,6.1-5.2,6.1C63,79,61.2,77.2,61.2,72.9z
		 M62.2,72.9c0,4,1.5,5.3,4.1,5.3c2.7,0,4.2-1.3,4.2-5.3c0-4-1.5-5.2-4.2-5.2C63.7,67.6,62.2,68.9,62.2,72.9z"/>
	<path class="st1" d="M81.7,67.1l2.9,10.3L87.7,67h0.9l-3.6,11.8h-1l-2.9-10.3l-2.9,10.3h-1L73.8,67h1l3,10.4l2.9-10.3H81.7z"/>
	<path class="st1" d="M91.9,67h8.2v0.8h-7.3v4.6h6.4v0.8h-6.4V78h7.5v0.8h-8.4V67z"/>
	<path class="st1" d="M104.2,67h4.4c2.7,0,3.9,1.2,3.9,3.5c0,1.8-0.8,3-2.5,3.5l2.6,4.8h-1.1l-2.6-4.7c-0.1,0-0.2,0-0.3,0h-3.6v4.7
		h-1V67z M105.2,67.8v5.4h3.5c1.8,0,2.8-0.9,2.8-2.8c0-1.8-0.9-2.7-2.9-2.7H105.2z"/>
	<path class="st1" d="M121,72.9c0-4.4,1.8-6.1,5.1-6.1c3.4,0,5.2,1.7,5.2,6.1c0,4.3-1.8,6.1-5.2,6.1C122.8,79,121,77.2,121,72.9z
		 M122,72.9c0,4,1.5,5.3,4.1,5.3c2.7,0,4.2-1.3,4.2-5.3c0-4-1.5-5.2-4.2-5.2C123.5,67.6,122,68.9,122,72.9z"/>
	<path class="st1" d="M135.8,67h8v0.8h-7v4.7h6.3v0.8h-6.3v5.4h-1V67z"/>
	<path class="st1" d="M151.3,72.9c0-4.3,1.9-6.1,5.7-6.1c2.4,0,3.9,0.8,4.7,2.7l-2.2,1.1c-0.5-1.2-1.2-1.5-2.5-1.5
		c-1.9,0-2.9,0.8-2.9,3.9c0,3,1.1,3.9,3,3.9c1.2,0,2.1-0.5,2.6-1.7l2.2,1.1c-0.9,1.8-2.4,2.8-4.9,2.8
		C153.1,79,151.3,77.1,151.3,72.9z"/>
	<path class="st1" d="M164.2,72.9c0-4.1,1.8-6.1,5.7-6.1c4,0,5.7,2,5.7,6.1s-1.8,6.1-5.7,6.1C165.9,79,164.2,77,164.2,72.9z
		 M167,72.9c0,2.9,1,3.9,2.9,3.9c1.9,0,2.9-1,2.9-3.9c0-2.9-1-3.8-2.9-3.8C168,69,167,70,167,72.9z"/>
	<path class="st1" d="M181.2,71.3l0.1,7.5h-2.6V67h2.2l5.7,7.8l-0.1-7.8h2.6v11.8h-2.4L181.2,71.3z"/>
	<path class="st1" d="M195.6,71.3l0.1,7.5h-2.6V67h2.2l5.7,7.8l-0.1-7.8h2.6v11.8h-2.4L195.6,71.3z"/>
	<path class="st1" d="M207.6,67h9v2.2h-6.3v2.6h5.5v2.2h-5.5v2.7h6.5v2.2h-9.2V67z"/>
	<path class="st1" d="M219.4,72.9c0-4.3,1.9-6.1,5.7-6.1c2.4,0,3.9,0.8,4.7,2.7l-2.2,1.1c-0.5-1.2-1.2-1.5-2.5-1.5
		c-1.9,0-2.9,0.8-2.9,3.9c0,3,1.1,3.9,3,3.9c1.2,0,2.1-0.5,2.6-1.7l2.2,1.1c-0.9,1.8-2.4,2.8-4.9,2.8
		C221.2,79,219.4,77.1,219.4,72.9z"/>
	<path class="st1" d="M242.1,67v2.3h-3.6v9.4h-2.8v-9.4h-3.6V67H242.1z"/>
	<path class="st1" d="M245.1,67h9v2.2h-6.3v2.6h5.5v2.2h-5.5v2.7h6.5v2.2h-9.2V67z"/>
	<path class="st1" d="M257.5,78.8V67h5.1c3.6,0,5.3,1.8,5.3,5.8c0,3.9-1.8,6-5.5,6H257.5z M262.1,76.6c1.8,0,3-0.9,3-3.7
		c0-2.6-1-3.6-2.7-3.6h-2.2v7.3H262.1z"/>
</g>
</svg>
