<?xml version="1.0" encoding="utf-8"?>
<!-- Generator: Adobe Illustrator 19.2.1, SVG Export Plug-In . SVG Version: 6.00 Build 0)  -->
<svg version="1.1" id="layer" xmlns="http://www.w3.org/2000/svg" xmlns:xlink="http://www.w3.org/1999/xlink" x="0px" y="0px"
	 viewBox="0 0 652 652" style="enable-background:new 0 0 652 652;" xml:space="preserve">
<style type="text/css">
	.st0{fill:#0078BF;}
	.st1{fill:#757C7F;}
	.st2{fill-rule:evenodd;clip-rule:evenodd;fill:#757C7F;}
	.st3{fill-rule:evenodd;clip-rule:evenodd;fill:#0078BF;}
</style>
<polygon class="st0" points="424.4,352.6 470.6,277 492,277 492,378.3 470.6,378.3 470.6,318.3 432.4,378.4 416.3,378.4 
	378.2,318.3 378.2,378.4 356.8,378.4 356.8,277 378.2,277 "/>
<rect x="182.7" y="277" class="st1" width="26.2" height="25.3"/>
<rect x="182.7" y="315.5" class="st0" width="26.2" height="62.9"/>
<g>
	<path class="st0" d="M332.9,320.4c-6.7-3.5-16.1-4.2-30-4.2h-36c-21.7,0-21.7-3-21.7-9.6c0-6.1,0-9.4,20.9-9.4h74.8V277h-71.1
		c-24.7,0-48.8,2.3-48.8,30c0,26.1,20.1,29.7,41.9,29.7h42.4c15.8,0,16.5,2.1,16.5,9.3c0,8.8-1.3,11.8-27.3,11.8h-69.1v20.5h73
		c22.7,0,47-2.5,47-31.7C345.3,334.8,343.2,325.9,332.9,320.4"/>
	<path class="st1" d="M628.3,378.8h-23.7v-32.1h-62.3V323h62.3v-14.2c0-5.1-1.7-7.7-5.1-7.7h-67c-3.3,0-4.9,2.6-4.9,7.7v70h-23.7
		v-70.1c0-8.5,2.7-15.9,8-22c5.3-6.2,12.2-9.2,20.6-9.2h67c8.5,0,15.5,3.1,20.8,9.2c5.3,6.2,8,13.5,8,22V378.8z"/>
	<path class="st2" d="M122.7,365.7c39-28.9,12.1-98.5-41.9-88.9c-16.1,2.8-28.4,15.1-34.9,33.1c-0.6-13.1,7.4-26.1,15.7-33.1
		c41.3-34.7,98.9,6.2,88.9,55.8C147.9,346.3,137.5,357.5,122.7,365.7"/>
	<path class="st3" d="M56.5,271.5C21,302.8,38.5,375.4,93.1,377.9c33.1,1.5,59.5-22.6,62.3-56.4c6.4,45.3-25.6,69.9-62.3,70.4
		C28.3,392.6,4.9,305.2,56.5,271.5"/>
	<path class="st3" d="M63.4,290.7C56.7,300.8,52.9,309,53,320.3c0.5,47.9,77.7,53.9,80.2,0c8.5,40.9-46,62.9-73.2,36.6
		C42.6,340.2,43,305.4,63.4,290.7"/>
</g>
</svg>
