<?xml version="1.0" encoding="utf-8"?>
<!-- Generator: Adobe Illustrator 23.0.1, SVG Export Plug-In . SVG Version: 6.00 Build 0)  -->
<svg version="1.1" id="Layer_1" xmlns="http://www.w3.org/2000/svg" xmlns:xlink="http://www.w3.org/1999/xlink" x="0px" y="0px"
	 viewBox="0 0 321.5 119.5" style="enable-background:new 0 0 321.5 119.5;" xml:space="preserve">
<style type="text/css">
	.st0{fill:#E82C2A;}
	.st1{fill:#0088CE;}
</style>
<g>
	<polygon class="st0" points="288.8,57.2 264.9,57.2 263.4,53.9 297.2,12 301.2,12 301.2,53.4 310.8,53.4 310.8,57.2 301.2,57.2 
		301.2,71.6 297,71.6 297,18.3 268.7,53.4 295.1,53.4 	"/>
	<g>
		<path class="st1" d="M26.9,53c-7.9,0-12.7,4-15.6,9.1v-8l-4.1,2.4v40.7h4.1v-25c0-9,6.5-15.4,15-15.4c8.7,0,13.7,5.8,13.7,14.7
			v25.6h4.1V70.8C44.2,60.5,37.9,53,26.9,53"/>
	</g>
	<rect x="52.6" y="37.1" class="st1" width="5.2" height="5.7"/>
	<polygon class="st1" points="53.1,56.4 53.1,97.2 57.3,97.2 57.3,54 57.3,54 	"/>
	<g>
		<path class="st1" d="M204.9,66.3V54l-4.1,2.4v40.7h4.1V79.5c0-14,8.7-21.6,18.7-21.6h0.4v-4.6C215.5,53,208.3,58.6,204.9,66.3"/>
		<path class="st1" d="M145,54v8.6c-3.6-5.1-9.4-9.6-18-9.6c-10.4,0-20.7,8-20.7,20.5v0.2C106.3,86,116.6,94,127,94
			c5.9,0,10.5-2.2,14-5.4v-4.3c-3.4,3.6-8.5,5.8-13.6,5.8c-8.9,0-16.7-6.8-16.7-16.5v-0.2c0-10.1,7.6-16.3,16.7-16.3
			c9,0,17.6,6.4,17.6,16.4v0.2v16.7c0,11.1-7,16.7-16.9,16.7c-6.3,0-12.3-2.1-17.4-6.1l-2.5,3.4c5.9,4.4,12.6,6.6,19.8,6.6
			c6.3,0,11.9-2,15.6-5.8c3.5-3.5,5.5-8.4,5.5-14.6V54H145z"/>
		<path class="st1" d="M96,58.1c-3.1-3.1-7.8-4.7-13.6-4.7c-5.9,0-10.6,1.5-15.3,3.7l1.5,3.6c4-2,8.3-3.5,13.5-3.5
			c8.9,0,14.2,4.5,14.2,13.2L96.5,81c0,7.9-7.5,13.3-16.3,13.3c-6.6,0-12.5-3.6-12.5-9.9v-0.2c0-6,5.1-10.1,14.2-10.1
			c1.8,0,3.5,0.1,5.1,0.2l5.3-3.1c-2.9-0.6-6.1-0.9-10.2-0.9c-11.2,0-18.9,5.1-18.9,14v0.2c0,9,8.6,13.5,16.7,13.5
			c8.2,0,13.5-4.1,16.5-8.2v7.2h4.1V70.3C100.4,65,98.9,61,96,58.1"/>
		<path class="st1" d="M257.1,58.1c-3.1-3.1-7.8-4.7-13.6-4.7c-5.9,0-10.6,1.5-15.3,3.7l1.5,3.6c4-2,8.3-3.5,13.5-3.5
			c8.9,0,14.2,4.5,14.2,13.2l0.1,10.6c0,7.9-7.5,13.3-16.3,13.3c-6.6,0-12.5-3.6-12.5-9.9v-0.2c0-6,5.1-10.1,14.2-10.1
			c1.8,0,3.5,0.1,5.1,0.2l5.3-3.1c-2.9-0.6-6.1-0.9-10.2-0.9c-11.2,0-18.9,5.1-18.9,14v0.2c0,9,8.6,13.5,16.7,13.5
			c8.2,0,13.5-4.1,16.5-8.2v7.2h4.1V70.3C261.5,65,260,61,257.1,58.1"/>
		<path class="st1" d="M187.9,58.1c-3.1-3.1-7.8-4.7-13.6-4.7c-5.9,0-10.6,1.5-15.3,3.7l1.5,3.6c4-2,8.3-3.5,13.5-3.5
			c8.9,0,14.2,4.5,14.2,13.2l0.1,10.6c0,7.9-7.5,13.3-16.3,13.3c-6.6,0-12.5-3.6-12.5-9.9v-0.2c0-6,5.1-10.1,14.2-10.1
			c1.8,0,3.5,0.1,5.1,0.2l5.3-3.1c-2.9-0.6-6.1-0.9-10.2-0.9c-11.2,0-18.9,5.1-18.9,14v0.2c0,9,8.6,13.5,16.7,13.5
			c8.2,0,13.5-4.1,16.5-8.2v7.2h4.1V70.3C192.3,65,190.8,61,187.9,58.1"/>
	</g>
</g>
</svg>
