<svg xmlns="http://www.w3.org/2000/svg" xmlns:xlink="http://www.w3.org/1999/xlink" viewBox="0 0 300 150">
  <defs>
    <style>
      .cls-1 {
        clip-path: url(#clip-trend);
      }

      .cls-2 {
        fill: #ff7800;
      }
    </style>
    <clipPath id="clip-trend">
      <rect width="300" height="150"/>
    </clipPath>
  </defs>
  <g id="trend" class="cls-1">
    <path id="trend-2" data-name="trend" class="cls-2" d="M292.4,97.039v4.336c-.189,1.225-.471,2.451-.66,3.676-1.6,7.636-5.562,13.009-13.48,14.894l-3.959.848H247.057c0-3.676.094-7.353,0-11.124,0-1.32.377-1.7,1.7-1.7,7.541.094,14.989.094,22.53,0a7.116,7.116,0,0,0,3.959-1.508c2.639-2.074,3.111-5.185,3.017-8.39-.094-5.09-2.451-9.521-9.144-9.333-8.2.189-16.308.094-24.51,0-1.32,0-1.7.377-1.7,1.7.094,9.615,0,19.231,0,28.94,0,.471.094.943.094,1.414H228.58a10.019,10.019,0,0,0-.848-1.037c-9.615-8.3-19.231-16.5-28.846-24.793a6.406,6.406,0,0,0-1.32-.848v19.608c0,2.357.094,4.808.094,7.164H123.282c-.094-.283-.094-.566-.189-.754-2.828-5.185-5.656-10.37-8.578-15.554a3.765,3.765,0,0,0-1.885-1.508,18.383,18.383,0,0,0-3.959-.754q-4.666-.141-9.333,0c-1.037,0-1.508-.283-1.508-1.414q.141-3.818,0-7.636c0-1.037.377-1.32,1.32-1.32H118.1c1.32,0,2.828-1.225,2.828-2.262-.094-1.414-1.131-1.885-2.262-2.262a5.376,5.376,0,0,0-1.225-.094H82.747c-1.414,0-3.488-.471-4.148.283-.754.848-.471,2.828-.471,4.336-.094,9.615-.094,19.231-.094,28.94H61.819V89.026c0-.189.094-.471,0-.566-.377-.377-.754-1.037-1.131-1.037H42.4V76.489h85.03a33.857,33.857,0,0,1,4.431,2.545c3.394,2.828,3.676,6.882,3.3,10.841a11.845,11.845,0,0,1-7.164,9.9,12.623,12.623,0,0,1-1.131.566c.283.283.377.471.566.66,1.6,2.074,3.205,4.054,4.713,6.127,1.7,2.451,3.205,5.09,4.808,7.636a16.069,16.069,0,0,0,1.791,1.791c.189-.094.283-.189.471-.283V86.01c0-3.205,0-6.41-.094-9.71h61.557a8.14,8.14,0,0,0,1.225,1.32c7.541,6.316,14.989,12.726,22.53,19.042,1.414,1.225,2.828,2.357,4.713,3.865V76.3h43.741c1.414.471,2.828.848,4.242,1.32,7.824,2.734,13.292,7.73,14.894,16.214C292.117,95.059,292.306,96.1,292.4,97.039ZM169,87.329h0c-4.242,0-8.39.094-12.632,0-1.508,0-2.074.471-1.885,1.98v.754c-.189,1.508.377,1.98,1.885,1.885,6.41-.094,12.915,0,19.325,0,1.98,0,1.98,0,1.98,2.074,0,2.168-.094,4.336,0,6.6.094,1.414-.471,1.791-1.791,1.791-5.75-.094-11.6,0-17.345,0-4.242,0-4.148,0-4.148,4.148,0,1.32.471,1.7,1.7,1.7H181.54c1.32,0,1.7-.566,1.7-1.791V88.932c0-1.225-.377-1.6-1.6-1.6Z" transform="translate(-17.4 -23.3)"/>
  </g>
</svg>
