<?xml version="1.0" encoding="utf-8"?>
<!-- Generator: Adobe Illustrator 19.2.1, SVG Export Plug-In . SVG Version: 6.00 Build 0)  -->
<svg version="1.1" id="layer" xmlns="http://www.w3.org/2000/svg" xmlns:xlink="http://www.w3.org/1999/xlink" x="0px" y="0px"
	 viewBox="0 0 652 652" style="enable-background:new 0 0 652 652;" xml:space="preserve">
<style type="text/css">
	.st0{fill:#0088CE;}
	.st1{fill:#E82C2A;}
</style>
<polygon class="st0" points="74,319.6 74,372.8 54.4,372.8 54.4,319.6 21.7,319.6 21.7,304.1 106.7,304.1 106.7,319.6 "/>
<g>
	<path class="st0" d="M186.3,326.9c0-4.4-3.6-7.3-9.8-7.3h-36.2V335h36.3C182.6,335,186.3,331.7,186.3,326.9 M186.5,372.8
		l-16.2-22.2h-30v22.2h-19.6v-68.7h57.7c16.5,0,27.4,9.5,27.4,23.1c0,10.2-4.9,17.3-14.4,21l17.5,24.6H186.5z"/>
</g>
<rect x="224.5" y="304.1" class="st0" width="19.6" height="68.7"/>
<g>
	<path class="st0" d="M336.6,339.5c0-11.3-9-19.9-21.6-19.9h-28.9v37.6h29C327.2,357.3,336.6,349.1,336.6,339.5 M357,339.7
		c0,10-4.4,18.4-13,24.8c-7,5.1-16.9,8.3-27.7,8.3h-49.9v-68.7H314C340.6,304.1,357,318.3,357,339.7"/>
</g>
<rect x="372.4" y="304.1" class="st0" width="19.7" height="68.7"/>
<g>
	<path class="st0" d="M455.7,374.9c-26.9,0-43.1-10.7-43.1-25.6v-45.2h19.6v43.1c0,7.5,8.2,12.2,23.3,12.2
		c15.2,0,23.5-4.7,23.5-12.2v-43.1h19.6v45.2C498.7,364.2,482.5,374.9,455.7,374.9"/>
</g>
<polygon class="st0" points="602,372.8 602,327.4 601.7,327.4 570.5,364.5 539.3,327.4 538.9,327.4 538.9,372.8 519.3,372.8 
	519.3,304.1 542.1,304.1 570.4,338.3 598.9,304.1 621.7,304.1 621.7,372.8 "/>
<polygon class="st1" points="547.9,295 570.4,267.9 592.9,295 "/>
</svg>
